<svg xmlns="http://www.w3.org/2000/svg" xmlns:xlink="http://www.w3.org/1999/xlink" width="114.541" height="111.676" viewBox="0 0 114.541 111.676">
  <defs>
    <linearGradient id="linear-gradient" x1="0.723" y1="0.153" x2="0.182" y2="0.693" gradientUnits="objectBoundingBox">
      <stop offset="0" stop-color="#6b5aed" stop-opacity="0.322"/>
      <stop offset="1" stop-color="#6b5aed"/>
    </linearGradient>
  </defs>
  <g id="_3819304" data-name="3819304" transform="translate(-419.838 -134.556)">
    <g id="OBJECTS" transform="translate(408.46 118.13)">
      <path id="Tracé_627" data-name="Tracé 627" d="M421.22,208.955l45,40.7s58.416-28.531,69.543-68.349L494.473,149.7S484.415,201.055,421.22,208.955Z" transform="translate(-409.843 -121.552)" fill="url(#linear-gradient)"/>
      <ellipse id="Ellipse_195" data-name="Ellipse 195" cx="16.878" cy="15.621" rx="16.878" ry="15.621" transform="translate(60.449 68.822)" fill="#5e5ed3"/>
      <ellipse id="Ellipse_196" data-name="Ellipse 196" cx="14.363" cy="13.294" rx="14.363" ry="13.294" transform="translate(62.964 71.149)" fill="none" stroke="#4747b2" stroke-miterlimit="10" stroke-width="1"/>
      <path id="Tracé_644" data-name="Tracé 644" d="M485.266,138.877c.7,2.675-5.8,6.687-14.488,8.916s-16.3,1.783-16.994-.892,5.8-6.7,14.5-8.916S484.579,136.176,485.266,138.877Z" transform="translate(-413.368 -120.127)" fill="#827cf9"/>
      <path id="Tracé_645" data-name="Tracé 645" d="M470.784,148.066c-8.693,2.22-16.3,1.783-16.994-.892l1.007,3.941c.7,2.675,8.3,3.085,16.994.892s15.157-6.241,14.488-8.916l-1.008-3.941C485.967,141.86,479.477,145.846,470.784,148.066Z" transform="translate(-413.375 -120.409)" fill="#6b5aed"/>
      <path id="Tracé_646" data-name="Tracé 646" d="M481.383,140.218c.5,1.944-4.164,4.815-10.423,6.41s-11.715,1.32-12.215-.624,4.173-4.815,10.423-6.41S480.892,138.284,481.383,140.218Z" transform="translate(-413.908 -120.345)" fill="#a4a4fc"/>
      <path id="Tracé_647" data-name="Tracé 647" d="M469.4,140.495c5.76-1.471,10.842-1.346,12,.205a1.236,1.236,0,0,0,0-.481c-.49-1.935-5.965-2.22-12.215-.624s-10.913,4.458-10.423,6.41a1.266,1.266,0,0,0,.223.419C459.238,144.516,463.643,141.966,469.4,140.495Z" transform="translate(-413.91 -120.345)" fill="#5e5ed3"/>
    </g>
  </g>
</svg>
