<svg xmlns="http://www.w3.org/2000/svg" width="19.999" height="20" viewBox="0 0 19.999 20">
  <g id="alert" transform="translate(-0.007)">
    <path id="Tracé_1004" data-name="Tracé 1004" d="M114.467,430.893H102.473l.98-2.891h10.035Z" transform="translate(-98.463 -411.283)" fill="#796bed"/>
    <path id="Tracé_1005" data-name="Tracé 1005" d="M148.143,166.62H139v-6.055a4.57,4.57,0,0,1,4.57-4.57h0a4.57,4.57,0,0,1,4.57,4.57Z" transform="translate(-133.566 -149.901)" fill="#ff5d5d" opacity="0.54"/>
    <g id="Groupe_2234" data-name="Groupe 2234" transform="translate(9.226 8.555)">
      <path id="Tracé_1006" data-name="Tracé 1006" d="M236.782,222.446h0a.781.781,0,0,1-.781-.781V219.79a.781.781,0,0,1,.781-.781h0a.781.781,0,0,1,.781.781v1.875A.781.781,0,0,1,236.782,222.446Z" transform="translate(-236.001 -219.009)" fill="#fff"/>
      <path id="Tracé_1007" data-name="Tracé 1007" d="M236.782,348.567h0a.781.781,0,0,1-.781-.781h0a.781.781,0,0,1,.781-.781h0a.781.781,0,0,1,.781.781h0A.781.781,0,0,1,236.782,348.567Z" transform="translate(-236.001 -342.005)" fill="#fff"/>
    </g>
    <path id="Tracé_1008" data-name="Tracé 1008" d="M104.248,156.886a.391.391,0,0,0-.37-.265h-.057v-5.664a4.961,4.961,0,1,0-9.922,0v5.664h-.057a.391.391,0,0,0-.37.265l-.979,2.891a.391.391,0,0,0,.37.516h11.994a.391.391,0,0,0,.37-.516Zm-9.567-5.93a4.18,4.18,0,0,1,8.359,0v5.664H94.681v-5.664Zm-1.273,8.555.715-2.109H103.6l.715,2.109Z" transform="translate(-88.854 -140.292)"/>
    <path id="Tracé_1009" data-name="Tracé 1009" d="M246.391,3.125a.391.391,0,0,0,.391-.391V.391a.391.391,0,0,0-.781,0V2.734A.391.391,0,0,0,246.391,3.125Z" transform="translate(-236.384)"/>
    <path id="Tracé_1010" data-name="Tracé 1010" d="M246.391,99.745a.39.39,0,1,0-.276-.114A.393.393,0,0,0,246.391,99.745Z" transform="translate(-236.384 -95.098)"/>
    <path id="Tracé_1011" data-name="Tracé 1011" d="M42.162,268.05a.391.391,0,0,0-.391-.391H39.978a.391.391,0,1,0,0,.781h1.794A.391.391,0,0,0,42.162,268.05Z" transform="translate(-38.034 -257.204)"/>
    <path id="Tracé_1012" data-name="Tracé 1012" d="M.4,267.66a.391.391,0,1,0,.276.667A.391.391,0,0,0,.4,267.66Z" transform="translate(0 -257.205)"/>
    <path id="Tracé_1013" data-name="Tracé 1013" d="M156.437,51.91a.391.391,0,0,0,.722-.3l-.529-1.278a.391.391,0,1,0-.722.3Z" transform="translate(-149.782 -48.135)"/>
    <path id="Tracé_1014" data-name="Tracé 1014" d="M30.1,178.85a.391.391,0,0,0,.15-.752l-1.278-.529a.391.391,0,0,0-.3.722l1.278.529A.391.391,0,0,0,30.1,178.85Z" transform="translate(-27.313 -170.605)"/>
    <path id="Tracé_1015" data-name="Tracé 1015" d="M412.846,267.66h-1.794a.391.391,0,1,0,0,.781h1.794a.391.391,0,1,0,0-.781Z" transform="translate(-394.614 -257.205)"/>
    <path id="Tracé_1016" data-name="Tracé 1016" d="M492.66,267.774a.39.39,0,1,0,.115.276A.393.393,0,0,0,492.66,267.774Z" transform="translate(-472.768 -257.205)"/>
    <path id="Tracé_1017" data-name="Tracé 1017" d="M387.864,79.683a.389.389,0,0,0,.276-.114l1.922-1.922a.391.391,0,0,0-.552-.552l-1.922,1.922a.391.391,0,0,0,.276.667Z" transform="translate(-372.331 -73.973)"/>
    <path id="Tracé_1018" data-name="Tracé 1018" d="M57.358,79.572a.391.391,0,0,0,.552-.552L55.988,77.1a.391.391,0,0,0-.552.552Z" transform="translate(-53.154 -73.976)"/>
    <path id="Tracé_1019" data-name="Tracé 1019" d="M322.8,52.122a.39.39,0,0,0,.51-.211l.529-1.278a.391.391,0,1,0-.722-.3l-.53,1.278A.391.391,0,0,0,322.8,52.122Z" transform="translate(-309.956 -48.136)"/>
    <path id="Tracé_1020" data-name="Tracé 1020" d="M432.362,177.568l-1.278.529a.391.391,0,1,0,.3.722l1.278-.529a.391.391,0,0,0-.3-.722Z" transform="translate(-414.006 -170.603)"/>
    <path id="Tracé_1021" data-name="Tracé 1021" d="M227.173,209.008A1.173,1.173,0,0,0,226,210.18v1.875a1.172,1.172,0,1,0,2.344,0V210.18A1.173,1.173,0,0,0,227.173,209.008Zm.391,3.047a.391.391,0,0,1-.781,0V210.18a.391.391,0,0,1,.781,0Z" transform="translate(-217.166 -200.844)"/>
    <path id="Tracé_1022" data-name="Tracé 1022" d="M227.173,337.005a1.172,1.172,0,1,0,1.172,1.172A1.173,1.173,0,0,0,227.173,337.005Zm0,1.563a.391.391,0,1,1,.391-.391A.391.391,0,0,1,227.173,338.568Z" transform="translate(-217.166 -323.841)"/>
  </g>
</svg>
