<svg xmlns="http://www.w3.org/2000/svg" width="41.951" height="51.183" viewBox="0 0 41.951 51.183">
  <g id="applause" transform="translate(-52.989 -8.294)">
    <path id="Tracé_1023" data-name="Tracé 1023" d="M88.264,66.8a1.671,1.671,0,0,0-2.3.31l2.324-3.293a1.778,1.778,0,1,0-2.874-2.094L84.344,63.14A1.909,1.909,0,0,0,81.137,61.1L68.121,76.851l0,0a20.721,20.721,0,0,0-1.351-7.775c-.678-1.445-2.962-3.1-3.983-1.544-.3.461-.107,1.171.147,2.267l.392,2.5a8.042,8.042,0,0,1-.129,3.145l-.5,2.064c-.342,1.474.907,9.124,1.346,11.7a1.948,1.948,0,0,1-.392,1.532L61.11,95.456l14.427-2.735L88.682,69.058A1.676,1.676,0,0,0,88.264,66.8Z" transform="translate(-7.282 -46.689)" fill="#ffd8b7"/>
    <path id="Tracé_1024" data-name="Tracé 1024" d="M144.955,60.921a1.906,1.906,0,0,0-2.861.174l-13,15.8a15.042,15.042,0,0,1,.2,3.29L144.16,62.128a1.9,1.9,0,0,1,1.151-.7A1.911,1.911,0,0,0,144.955,60.921Z" transform="translate(-68.239 -46.684)" fill="#eac3a7"/>
    <path id="Tracé_1025" data-name="Tracé 1025" d="M66.106,147.006c-.439-2.581-1.688-10.23-1.346-11.7l.5-2.064a8.042,8.042,0,0,0,.129-3.145L65,127.6c-.254-1.1-.448-1.806-.147-2.267a1.283,1.283,0,0,1,1.084-.627c-.976-.963-2.4-1.548-3.15-.406-.3.461-.107,1.171.147,2.267l.392,2.5a8.042,8.042,0,0,1-.129,3.145l-.5,2.064c-.342,1.474.907,9.124,1.346,11.7a1.948,1.948,0,0,1-.392,1.532l-2.538,4.718,2.92-.553,1.685-3.132a1.948,1.948,0,0,0,.392-1.532Z" transform="translate(-7.282 -103.456)" fill="#eac3a7"/>
    <path id="Tracé_1026" data-name="Tracé 1026" d="M95.34,157.66a1.775,1.775,0,0,0-2.477-.471L91.393,158.2A1.91,1.91,0,0,0,89,155.239l-12.649,8.41a18.509,18.509,0,0,1-2.944,1.506,10.563,10.563,0,0,0-1.734.861,20.8,20.8,0,0,0,1.171-7.793,4.417,4.417,0,0,0-1.252-2.481,1.461,1.461,0,0,0-2.033-.252c-.433.341-.474,1.076-.582,2.2l-.256,1.52h0l-.163.969a8.05,8.05,0,0,1-1.122,2.942l-1.129,1.8c-.792,1.289-2.038,8.943-2.442,11.527a1.94,1.94,0,0,1-.858,1.327l-3.8,2.479-.219.143,7.775,9.947,6.857-5.678c.2-.165.385-.343.569-.524a4.525,4.525,0,0,1,1.656-1.037c1.616-.575,4.547-2.481,8.215-6.119l7.215-6.463a2.642,2.642,0,0,0,.613-3.218l-.266-.508,2-1.6A1.675,1.675,0,0,0,91.8,162.4l3.125-2.308A1.782,1.782,0,0,0,95.34,157.66Z" transform="translate(-5.381 -131.48)" fill="#f6e4d5"/>
    <path id="Tracé_1027" data-name="Tracé 1027" d="M71.6,157.974a1.461,1.461,0,0,0-2.033-.252c-.433.341-.474,1.076-.582,2.2l-.256,1.52h0l-.163.969a8.05,8.05,0,0,1-1.122,2.942l-1.129,1.8c-.792,1.289-2.038,8.943-2.442,11.527A1.94,1.94,0,0,1,63.009,180l-3.8,2.479-.219.143,1.378,1.763.907-.872,3.8-2.479a1.94,1.94,0,0,0,.858-1.327c.4-2.584,1.65-10.237,2.442-11.527l1.129-1.8a8.05,8.05,0,0,0,1.122-2.942l.163-.969h0l.256-1.52c.107-1.121.149-1.856.582-2.2a1.491,1.491,0,0,1,.432-.241,3.682,3.682,0,0,0-.465-.54Z" transform="translate(-5.381 -133.711)" fill="#e2ccbc"/>
    <path id="Tracé_1028" data-name="Tracé 1028" d="M199.84,155.206a1.905,1.905,0,0,0-2.09.015L185.1,163.63c-.5.331-3.256,1.607-4.309,2.1a.62.62,0,0,0-.343.426c-.053.235-.108.46-.163.672a.62.62,0,0,0,.864.717c1.13-.527,2.614-1.181,3.074-1.374a18.509,18.509,0,0,0,2.944-1.506l12.649-8.41.007,0Z" transform="translate(-114.127 -131.46)" fill="#e2ccbc"/>
    <g id="Groupe_2235" data-name="Groupe 2235" transform="translate(52.989 8.294)">
      <path id="Tracé_1029" data-name="Tracé 1029" d="M353.668,15.856a.62.62,0,0,0,.832-.276l3.2-6.388a.62.62,0,0,0-1.108-.556l-3.2,6.388A.62.62,0,0,0,353.668,15.856Z" transform="translate(-322.296 -8.294)" fill="#bfbfbf"/>
      <path id="Tracé_1030" data-name="Tracé 1030" d="M369.554,54.806a.62.62,0,0,0,.851.212l6.789-4.079a.62.62,0,1,0-.639-1.063l-6.789,4.079A.62.62,0,0,0,369.554,54.806Z" transform="translate(-336.769 -45.501)" fill="#bfbfbf"/>
      <path id="Tracé_1031" data-name="Tracé 1031" d="M387.255,110.494h-.007l-6.953.072a.62.62,0,1,0,.006,1.24h.007l6.953-.072a.62.62,0,0,0-.006-1.24Z" transform="translate(-345.927 -99.935)" fill="#bfbfbf"/>
      <path id="Tracé_1032" data-name="Tracé 1032" d="M88.933,66.126a2.378,2.378,0,0,0-1.736.335,2.527,2.527,0,0,0-3.919-1.911L80.34,66.5l1.581-2.492a2.3,2.3,0,0,0-1.608-3.521l1.2-1.7A2.4,2.4,0,0,0,77.689,55.9a2.526,2.526,0,0,0-4.323-.566L66.1,64.706a2.445,2.445,0,0,0-.316-.16,1.909,1.909,0,0,0-1.986.285c-.613.483-.69,1.292-.8,2.413l-.018.189-.217,1.283c-.359.347-.879.832-1.215,1.134l-.1.092a21.6,21.6,0,0,0-1.4-6.514,4.568,4.568,0,0,0-3.269-2.523,1.909,1.909,0,0,0-1.793.9,2.874,2.874,0,0,0-.047,2.283c.04.176.075.353.1.531L55.428,67a7.4,7.4,0,0,1-.119,2.9l-.5,2.07c-.348,1.5.689,8.129,1.338,11.948a1.326,1.326,0,0,1-.267,1.043l-2.523,4.67-.087.057a.62.62,0,0,0-.15.9l7.775,9.947a.62.62,0,0,0,.422.235.629.629,0,0,0,.067,0,.621.621,0,0,0,.4-.142l6.857-5.678c.224-.186.434-.387.609-.559a3.884,3.884,0,0,1,1.43-.9c2.079-.74,5.235-3.081,8.443-6.262L86.3,80.81a3.249,3.249,0,0,0,.757-3.974l-.029-.056,1.6-1.281a2.3,2.3,0,0,0-.4-3.846l1.675-1.237a2.4,2.4,0,0,0-.976-4.289ZM74.345,56.1a1.289,1.289,0,0,1,2.187,1.335l-8,11.443a.62.62,0,0,0,1.015.712l9.083-12.878A1.159,1.159,0,1,1,80.5,58.073L71.584,70.708a.62.62,0,1,0,1.012.715l6.565-9.3a1.054,1.054,0,0,1,1.714,1.224L77.8,68.192l-7.17,4.768a17.508,17.508,0,0,1-2.841,1.451c-.151.063-.294.125-.433.186a21.649,21.649,0,0,0,.725-6.617,5.092,5.092,0,0,0-1.059-2.44Zm-17.457,29.6a2.568,2.568,0,0,0,.481-1.974c-1.03-6.063-1.561-10.562-1.354-11.455l.5-2.064a8.632,8.632,0,0,0,.139-3.388l-.4-2.477q-.044-.266-.1-.528a2.566,2.566,0,0,1-.123-1.32.675.675,0,0,1,.669-.345,3.4,3.4,0,0,1,2.234,1.812,20.812,20.812,0,0,1,1.311,7.288,7.482,7.482,0,0,0-.944,1.8.636.636,0,0,0,.344.822.619.619,0,0,0,.805-.355,5.937,5.937,0,0,1,1.917-2.711,7.4,7.4,0,0,1-.825,1.821l-1.132,1.8c-.806,1.31-1.929,7.928-2.527,11.756a1.323,1.323,0,0,1-.584.9l-1.764,1.15ZM89.173,69.418,75.709,79.363a.62.62,0,1,0,.737,1l10.295-7.6a1.055,1.055,0,0,1,1.121,1.773l-11.026,8.8a.62.62,0,1,0,.773.969l8.428-6.728a2.013,2.013,0,0,1-.545,2.3l-7.246,6.492c-3.632,3.6-6.506,5.448-7.985,5.975a5.115,5.115,0,0,0-1.883,1.179c-.164.162-.342.333-.531.488L61.48,99.279l-6.967-8.913,3.453-2.252a2.565,2.565,0,0,0,1.131-1.75c.949-6.077,1.875-10.512,2.355-11.292l1.129-1.8a8.631,8.631,0,0,0,1.208-3.168l.421-2.489c0-.015,0-.029.006-.044l.02-.213c.068-.72.132-1.4.328-1.555a.675.675,0,0,1,.743-.114,3.407,3.407,0,0,1,1.544,2.43A20.866,20.866,0,0,1,65.8,75.434a7.475,7.475,0,0,0-1.5,1.434.62.62,0,0,0,.957.789,6.286,6.286,0,0,1,3.015-2.1,18.654,18.654,0,0,0,3.048-1.562l12.648-8.41a1.269,1.269,0,0,1,1.047-.171,1.292,1.292,0,0,1,.6,2.133l-12.173,8.97a.62.62,0,1,0,.734,1l13.656-9.987a1.159,1.159,0,1,1,1.341,1.892Z" transform="translate(-52.989 -49.6)" fill="#bfbfbf"/>
    </g>
  </g>
</svg>
