<svg xmlns="http://www.w3.org/2000/svg" width="17" height="17" viewBox="0 0 17 17">
  <g id="Comptabilités" transform="translate(0.5 0.5)">
    <path id="Tracé_1323" data-name="Tracé 1323" d="M685.965,731.355v15.272a.364.364,0,0,1-.364.364H670.329a.364.364,0,0,1-.364-.364V731.355a.364.364,0,0,1,.364-.364H685.6A.364.364,0,0,1,685.965,731.355Z" transform="translate(-669.965 -730.991)" fill="none" stroke="#ababab" stroke-linecap="round" stroke-linejoin="round" stroke-width="1"/>
    <path id="Tracé_1324" data-name="Tracé 1324" d="M680.679,739.026v-8.035h2.142v8.035a.535.535,0,0,1-.535.536h-1.072A.536.536,0,0,1,680.679,739.026Z" transform="translate(-673.75 -730.991)" fill="none" stroke="#ababab" stroke-linecap="round" stroke-linejoin="round" stroke-width="1"/>
    <path id="Tracé_1325" data-name="Tracé 1325" d="M682.821,748.443h5m-3.33-2.453h3.33" transform="translate(-674.209 -735.046)" fill="none" stroke="#ababab" stroke-linecap="round" stroke-linejoin="round" stroke-width="1"/>
  </g>
</svg>
