<svg id="Composant_41_2" data-name="Composant 41 – 2" xmlns="http://www.w3.org/2000/svg" width="11.266" height="11.266" viewBox="0 0 11.266 11.266">
  <path id="ic_face_24px" d="M5.943,7.492a.7.7,0,1,0,.7.7A.7.7,0,0,0,5.943,7.492Zm3.38,0a.7.7,0,1,0,.7.7A.7.7,0,0,0,9.323,7.492ZM7.633,2a5.633,5.633,0,1,0,5.633,5.633A5.635,5.635,0,0,0,7.633,2Zm0,10.139A4.512,4.512,0,0,1,3.127,7.633a4.567,4.567,0,0,1,.028-.484A5.668,5.668,0,0,0,6.089,4.124a5.618,5.618,0,0,0,4.6,2.383,5.5,5.5,0,0,0,1.267-.146,4.5,4.5,0,0,1-4.32,5.779Z" transform="translate(-2 -2)" fill="#94979d"/>
</svg>
