<svg xmlns="http://www.w3.org/2000/svg" xmlns:xlink="http://www.w3.org/1999/xlink" width="179.821" height="203.138" viewBox="0 0 179.821 203.138">
  <defs>
    <linearGradient id="linear-gradient" x1="0.723" y1="0.153" x2="0.182" y2="0.693" gradientUnits="objectBoundingBox">
      <stop offset="0" stop-color="#6b5aed" stop-opacity="0.322"/>
      <stop offset="1" stop-color="#6b5aed"/>
    </linearGradient>
  </defs>
  <g id="Composant_32_1" data-name="Composant 32 – 1" transform="translate(0 0)">
    <path id="Tracé_627" data-name="Tracé 627" d="M421.22,208.955l45,40.7s58.416-28.531,69.543-68.349L494.473,149.7S484.415,201.055,421.22,208.955Z" transform="translate(-421.22 -121.552)" fill="url(#linear-gradient)"/>
    <ellipse id="Ellipse_195" data-name="Ellipse 195" cx="16.878" cy="15.621" rx="16.878" ry="15.621" transform="translate(49.073 68.822)" fill="#5e5ed3"/>
    <ellipse id="Ellipse_196" data-name="Ellipse 196" cx="14.363" cy="13.294" rx="14.363" ry="13.294" transform="translate(51.588 71.148)" fill="none" stroke="#4747b2" stroke-miterlimit="10" stroke-width="1"/>
    <rect id="Rectangle_854" data-name="Rectangle 854" width="77.487" height="145.64" rx="9.18" transform="translate(96.725 10.085) rotate(16.36)" fill="#404568"/>
    <path id="Tracé_633" data-name="Tracé 633" d="M601.724,152.074l-2.372-.7a8.122,8.122,0,0,1,5.5,10.084L568.415,285.616a8.113,8.113,0,0,1-10.075,5.5l2.38.7a8.113,8.113,0,0,0,10.075-5.5l36.457-124.162a8.114,8.114,0,0,0-5.528-10.075Z" transform="translate(-436.086 -121.734)" fill="#1c1f33"/>
    <rect id="Rectangle_855" data-name="Rectangle 855" width="71.844" height="140.424" rx="8.46" transform="translate(98.695 13.41) rotate(16.36)" fill="#fff"/>
    <rect id="Rectangle_856" data-name="Rectangle 856" width="64.916" height="40.103" rx="5.64" transform="translate(88.162 60.892) rotate(16.36)" fill="#90cfec"/>
    <path id="Tracé_634" data-name="Tracé 634" d="M560.805,260.169l-52.826-15.5a4.939,4.939,0,0,1-3.343-6.125h0a4.939,4.939,0,0,1,6.125-3.343l52.826,15.514a4.931,4.931,0,0,1,3.344,6.116h0A4.939,4.939,0,0,1,560.805,260.169Z" transform="translate(-430.241 -130.8)" fill="#e5e5e5"/>
    <path id="Tracé_635" data-name="Tracé 635" d="M579.026,198.129,526.2,182.615a4.931,4.931,0,0,1-3.343-6.116h0a4.931,4.931,0,0,1,6.125-3.343l52.826,15.5a4.939,4.939,0,0,1,3.343,6.125h0a4.93,4.93,0,0,1-6.125,3.343Z" transform="translate(-432.217 -124.074)" fill="#e5e5e5"/>
    <path id="Tracé_636" data-name="Tracé 636" d="M586.608,181.053l-33.318-9.807a4.922,4.922,0,0,1-3.343-6.116h0a4.93,4.93,0,0,1,6.116-3.343l33.327,9.807a4.939,4.939,0,0,1,3.343,6.125h0A4.939,4.939,0,0,1,586.608,181.053Z" transform="translate(-435.155 -122.841)" fill="#e5e5e5"/>
    <path id="Tracé_638" data-name="Tracé 638" d="M543.833,163.115a7.668,7.668,0,1,1-5.189-9.513A7.668,7.668,0,0,1,543.833,163.115Z" transform="translate(-432.884 -121.942)" fill="#e5e5e5"/>
    <rect id="Rectangle_857" data-name="Rectangle 857" width="48.217" height="3.807" rx="1.42" transform="translate(83.967 84.663) rotate(16.36)" fill="#fff"/>
    <rect id="Rectangle_858" data-name="Rectangle 858" width="14.435" height="3.807" rx="1.42" transform="translate(82.533 89.588) rotate(16.36)" fill="#fff"/>
    <rect id="Rectangle_859" data-name="Rectangle 859" width="14.435" height="6.981" rx="1.42" transform="translate(90.063 65.913) rotate(16.36)" fill="#fff"/>
    <rect id="Rectangle_860" data-name="Rectangle 860" width="14.435" height="3.807" rx="1.42" transform="translate(98.724 94.35) rotate(16.36)" fill="#fff"/>
    <path id="Tracé_644" data-name="Tracé 644" d="M485.266,138.877c.7,2.675-5.8,6.687-14.488,8.916s-16.3,1.783-16.994-.892,5.8-6.7,14.5-8.916S484.579,136.176,485.266,138.877Z" transform="translate(-424.744 -120.127)" fill="#827cf9"/>
    <path id="Tracé_645" data-name="Tracé 645" d="M470.784,148.066c-8.693,2.22-16.3,1.783-16.994-.892l1.007,3.941c.7,2.675,8.3,3.085,16.994.892s15.157-6.241,14.488-8.916l-1.008-3.941C485.967,141.86,479.477,145.846,470.784,148.066Z" transform="translate(-424.751 -120.409)" fill="#6b5aed"/>
    <path id="Tracé_646" data-name="Tracé 646" d="M481.383,140.218c.5,1.944-4.164,4.815-10.423,6.41s-11.715,1.32-12.215-.624,4.173-4.815,10.423-6.41S480.892,138.284,481.383,140.218Z" transform="translate(-425.284 -120.345)" fill="#a4a4fc"/>
    <path id="Tracé_647" data-name="Tracé 647" d="M469.4,140.495c5.76-1.471,10.842-1.346,12,.205a1.236,1.236,0,0,0,0-.481c-.49-1.935-5.965-2.22-12.215-.624s-10.913,4.458-10.423,6.41a1.266,1.266,0,0,0,.223.419C459.238,144.516,463.643,141.966,469.4,140.495Z" transform="translate(-425.286 -120.345)" fill="#5e5ed3"/>
    <ellipse id="Ellipse_197" data-name="Ellipse 197" cx="5.046" cy="16.245" rx="5.046" ry="16.245" transform="translate(145.884 9.824) rotate(-76.75)" fill="#827cf9"/>
    <path id="Tracé_648" data-name="Tracé 648" d="M600.724,132.291c-8.729-2.051-15.291-5.92-14.658-8.631l-.891,3.959c-.642,2.675,5.92,6.58,14.649,8.639s16.334,1.525,16.94-1.195l.892-3.959C617.058,133.815,609.461,134.35,600.724,132.291Z" transform="translate(-438.99 -118.729)" fill="#6b5aed"/>
    <path id="Tracé_649" data-name="Tracé 649" d="M613.9,129.974c-.455,1.953-5.92,2.336-12.2.892s-11-4.262-10.538-6.241,5.92-2.336,12.2-.892S614.365,128.021,613.9,129.974Z" transform="translate(-439.641 -118.642)" fill="#a4a4fc"/>
    <path id="Tracé_650" data-name="Tracé 650" d="M603.15,124.666c5.786,1.364,10.235,3.825,10.547,5.733a1.351,1.351,0,0,0,.2-.428c.464-1.953-4.262-4.734-10.538-6.241s-11.742-1.1-12.2.892a1.086,1.086,0,0,0,0,.481C592.281,123.524,597.363,123.3,603.15,124.666Z" transform="translate(-439.642 -118.638)" fill="#5e5ed3"/>
    <path id="Tracé_637" data-name="Tracé 637" d="M556.5,274.849l-52.826-15.514a4.931,4.931,0,0,1-3.344-6.116h0a4.939,4.939,0,0,1,6.125-3.343l52.826,15.5a4.939,4.939,0,0,1,3.344,6.125h0a4.94,4.94,0,0,1-6.125,3.343Z" transform="translate(-430.775 -132.392)" fill="#e5e5e5"/>
    <path id="Tracé_651" data-name="Tracé 651" d="M617.782,336.277c-.642,2.675-8.238,3.245-16.94,1.186s-15.3-5.92-14.658-8.639,8.238-3.245,16.94-1.186S618.424,333.557,617.782,336.277Z" transform="translate(-444.1 -178.708)" fill="#6b5aed"/>
    <path id="Tracé_652" data-name="Tracé 652" d="M600.7,337.76c-8.738-2.06-15.3-5.92-14.658-8.639l-.892,3.968c-.633,2.675,5.92,6.58,14.658,8.63s16.334,1.525,16.94-1.186l.891-3.959C617.029,339.284,609.433,339.819,600.7,337.76Z" transform="translate(-443.989 -179.005)" fill="#5e5ed3"/>
    <path id="Tracé_653" data-name="Tracé 653" d="M613.881,335.434c-.464,1.953-5.929,2.336-12.206.892s-10.993-4.262-10.538-6.241,5.92-2.336,12.206-.892S614.335,333.49,613.881,335.434Z" transform="translate(-444.638 -178.917)" fill="#a4a4fc"/>
    <path id="Tracé_654" data-name="Tracé 654" d="M603.129,330.125c5.786,1.364,10.235,3.834,10.539,5.733a1.139,1.139,0,0,0,.214-.428c.455-1.944-4.262-4.725-10.538-6.241s-11.742-1.1-12.206.892a1.2,1.2,0,0,0,0,.473C592.261,328.984,597.343,328.761,603.129,330.125Z" transform="translate(-444.639 -178.913)" fill="#5e5ed3"/>
    <path id="Tracé_655" data-name="Tracé 655" d="M546.065,346.671a1.4,1.4,0,0,1-.259-.071,2.327,2.327,0,0,1-1.471-2.951c.232-.7,5.884-17.118,17.457-15.041l.357.071c11.305,2.4,9.9,20.052,9.807,20.818a2.336,2.336,0,0,1-4.645-.41c0-.143,1.025-14.506-6.366-15.888-7.534-1.346-12.17,11.8-12.215,11.929A2.318,2.318,0,0,1,546.065,346.671Z" transform="translate(-439.554 -178.929)" fill="#5e5ed3"/>
    <path id="Tracé_656" data-name="Tracé 656" d="M537.379,344.49,530.96,374.8l38.561,8.176,6.428-30.314Zm17.876,28.263-8.6-1.828,3.566-5.3a5.706,5.706,0,1,1,4.057.892Z" transform="translate(-438.117 -180.671)" fill="#6b5aed"/>
    <path id="Tracé_657" data-name="Tracé 657" d="M580.638,353.67l-6.428,30.314,3.843.82,6.419-30.314Z" transform="translate(-442.806 -181.667)" fill="#5e5ed3"/>
    <path id="Tracé_658" data-name="Tracé 658" d="M557.164,374.052l-8.6-1.828,3.566-5.3a5.706,5.706,0,1,1,4.057.892Z" transform="translate(-440.026 -181.97)" fill="#0a0059"/>
    <path id="Tracé_659" data-name="Tracé 659" d="M551.44,361.414a5.68,5.68,0,0,1,5.884-4.458,5.688,5.688,0,0,0-5.2,10.03l-3.566,5.3,1.7.366,3.566-5.349A5.671,5.671,0,0,1,551.44,361.414Z" transform="translate(-440.026 -181.983)" fill="#04013a"/>
  </g>
</svg>
