<svg id="edit" xmlns="http://www.w3.org/2000/svg" width="15.617" height="16.355" viewBox="0 0 15.617 16.355">
  <path id="Tracé_110" data-name="Tracé 110" d="M14.413,47.843a.4.4,0,0,0-.389.409v3.635a1.2,1.2,0,0,1-1.167,1.228H1.945A1.2,1.2,0,0,1,.778,51.888V41.219a1.2,1.2,0,0,1,1.167-1.228H5.4a.41.41,0,0,0,0-.819H1.945A2,2,0,0,0,0,41.219V51.888a2,2,0,0,0,1.945,2.047H12.858A2,2,0,0,0,14.8,51.888V48.253a.4.4,0,0,0-.389-.409Zm0,0" transform="translate(0 -37.579)" fill="#7b7979"/>
  <path id="Tracé_111" data-name="Tracé 111" d="M118.631.8a1.689,1.689,0,0,0-2.475,0l-6.939,7.3a.415.415,0,0,0-.1.18l-.912,3.468a.424.424,0,0,0,.1.4.376.376,0,0,0,.379.105l3.294-.961a.385.385,0,0,0,.171-.105l6.939-7.3a1.914,1.914,0,0,0,0-2.605Zm-8.567,7.57,5.679-5.978,1.831,1.928L111.9,10.3Zm-.366.773,1.463,1.54-2.024.59Zm8.839-5.836-.412.434-1.832-1.928.413-.434a.938.938,0,0,1,1.375,0l.457.48A1.064,1.064,0,0,1,118.537,3.307Zm0,0" transform="translate(-103.982 -0.261)" fill="#7b7979"/>
</svg>
