<svg xmlns="http://www.w3.org/2000/svg" width="67" height="67" viewBox="0 0 67 67">
  <g id="Groupe_1549" data-name="Groupe 1549" transform="translate(-369.898 -243.898)">
    <circle id="Ellipse_192" data-name="Ellipse 192" cx="33.5" cy="33.5" r="33.5" transform="translate(369.898 243.898)" fill="#e8f2fb" opacity="0.61"/>
    <g id="Page-1" transform="translate(385.072 259.072)" opacity="0.91">
      <g id="_031---University" data-name="031---University" transform="translate(0 0)">
        <path id="Shape" d="M35.722,32.258V18.164a.592.592,0,0,0-.07-.268h.006l-1.482-2.964a1.806,1.806,0,0,0-1.624-1.006h-4.1V13.32a.605.605,0,0,0-.177-.428L25,9.614a1.792,1.792,0,0,0-.783-.453V5.077l1.211-.325V6.223a1.856,1.856,0,0,0,.828,1.547.606.606,0,0,0,.672-1.007.647.647,0,0,1-.289-.539V4.373a1.211,1.211,0,0,0-.291-2.218L18.475.041a1.205,1.205,0,0,0-.622,0L9.978,2.156a1.218,1.218,0,0,0,0,2.349l2.131.572V9.082h-.038a1.812,1.812,0,0,0-1.393.654l-2.664,3.2a.605.605,0,0,0-.143.387v.605h-4.1a1.806,1.806,0,0,0-1.624,1L.669,17.893H.675a.592.592,0,0,0-.07.271V32.258A1.207,1.207,0,0,0,0,33.3v1.211a1.211,1.211,0,0,0,1.211,1.211H9.25a1.207,1.207,0,0,0,1.043.605H26.035a1.207,1.207,0,0,0,1.043-.605h8.039a1.211,1.211,0,0,0,1.211-1.211V33.3A1.207,1.207,0,0,0,35.722,32.258ZM26.64,32.09h-.605V18.77h8.476V32.09Zm-6.66,0H16.348V25.43H19.98Zm.605-7.871H15.742a.605.605,0,0,0-.605.605V32.09H11.5V18.77h13.32V32.09H21.191V24.824A.605.605,0,0,0,20.586,24.219Zm6.66-10.293v1.211H9.082V13.926Zm-1.211,2.422v1.211H10.293V16.348Zm6.517-1.211a.6.6,0,0,1,.541.335l1.044,2.087H27.246V16.348a1.211,1.211,0,0,0,1.211-1.211ZM18.164,1.211,26.043,3.33h-.008L18.167,5.449,10.293,3.325ZM13.32,5.4l4.532,1.217a1.2,1.2,0,0,0,.622,0L23.008,5.4v3.68H13.32Zm-1.714,5.109a.605.605,0,0,1,.465-.218H23.717a.605.605,0,0,1,.429.177l2.244,2.244H9.769ZM3.234,15.472a.6.6,0,0,1,.541-.335h4.1a1.211,1.211,0,0,0,1.211,1.211v1.211H2.191ZM1.211,33.3H9.082v1.211H1.211ZM9.687,32.09H1.816V18.77h8.476V32.09Zm.605,3.027V33.3H26.035v1.816Zm24.824-.605H27.246V33.3h7.871Z" transform="translate(0 -0.001)" fill="rgba(148,151,157,0.54)"/>
        <path id="Shape-2" data-name="Shape" d="M26.605,33a.605.605,0,0,0-.605.605v1.211a.605.605,0,1,0,1.211,0V33.605A.605.605,0,0,0,26.605,33Z" transform="translate(-10.258 -13.02)" fill="rgba(148,151,157,0.54)"/>
        <path id="Shape-3" data-name="Shape" d="M12.605,34a.605.605,0,0,0-.605.605v1.211a.605.605,0,1,0,1.211,0V34.605A.605.605,0,0,0,12.605,34Z" transform="translate(-4.734 -13.415)" fill="rgba(148,151,157,0.54)"/>
        <path id="Shape-4" data-name="Shape" d="M6.605,34A.605.605,0,0,0,6,34.605v1.211a.605.605,0,1,0,1.211,0V34.605A.605.605,0,0,0,6.605,34Z" transform="translate(-2.367 -13.415)" fill="rgba(148,151,157,0.54)"/>
        <path id="Shape-5" data-name="Shape" d="M12.605,40a.605.605,0,0,0-.605.605v1.211a.605.605,0,1,0,1.211,0V40.605A.605.605,0,0,0,12.605,40Z" transform="translate(-4.734 -15.782)" fill="rgba(148,151,157,0.54)"/>
        <path id="Shape-6" data-name="Shape" d="M6.605,40A.605.605,0,0,0,6,40.605v1.211a.605.605,0,1,0,1.211,0V40.605A.605.605,0,0,0,6.605,40Z" transform="translate(-2.367 -15.782)" fill="rgba(148,151,157,0.54)"/>
        <path id="Shape-7" data-name="Shape" d="M12.605,46a.605.605,0,0,0-.605.605v1.211a.605.605,0,0,0,1.211,0V46.605A.605.605,0,0,0,12.605,46Z" transform="translate(-4.734 -18.149)" fill="rgba(148,151,157,0.54)"/>
        <path id="Shape-8" data-name="Shape" d="M6.605,46A.605.605,0,0,0,6,46.605v1.211a.605.605,0,0,0,1.211,0V46.605A.605.605,0,0,0,6.605,46Z" transform="translate(-2.367 -18.149)" fill="rgba(148,151,157,0.54)"/>
        <path id="Shape-9" data-name="Shape" d="M52.605,34a.605.605,0,0,0-.605.605v1.211a.605.605,0,1,0,1.211,0V34.605A.605.605,0,0,0,52.605,34Z" transform="translate(-20.516 -13.415)" fill="rgba(148,151,157,0.54)"/>
        <path id="Shape-10" data-name="Shape" d="M46.605,34a.605.605,0,0,0-.605.605v1.211a.605.605,0,1,0,1.211,0V34.605A.605.605,0,0,0,46.605,34Z" transform="translate(-18.149 -13.415)" fill="rgba(148,151,157,0.54)"/>
        <path id="Shape-11" data-name="Shape" d="M52.605,40a.605.605,0,0,0-.605.605v1.211a.605.605,0,1,0,1.211,0V40.605A.605.605,0,0,0,52.605,40Z" transform="translate(-20.516 -15.782)" fill="rgba(148,151,157,0.54)"/>
        <path id="Shape-12" data-name="Shape" d="M46.605,40a.605.605,0,0,0-.605.605v1.211a.605.605,0,1,0,1.211,0V40.605A.605.605,0,0,0,46.605,40Z" transform="translate(-18.149 -15.782)" fill="rgba(148,151,157,0.54)"/>
        <path id="Shape-13" data-name="Shape" d="M52.605,46a.605.605,0,0,0-.605.605v1.211a.605.605,0,0,0,1.211,0V46.605A.605.605,0,0,0,52.605,46Z" transform="translate(-20.516 -18.149)" fill="rgba(148,151,157,0.54)"/>
        <path id="Shape-14" data-name="Shape" d="M46.605,46a.605.605,0,0,0-.605.605v1.211a.605.605,0,0,0,1.211,0V46.605A.605.605,0,0,0,46.605,46Z" transform="translate(-18.149 -18.149)" fill="rgba(148,151,157,0.54)"/>
        <path id="Shape-15" data-name="Shape" d="M32.605,33a.605.605,0,0,0-.605.605v1.211a.605.605,0,1,0,1.211,0V33.605A.605.605,0,0,0,32.605,33Z" transform="translate(-12.625 -13.02)" fill="rgba(148,151,157,0.54)"/>
      </g>
    </g>
  </g>
</svg>
