<svg xmlns="http://www.w3.org/2000/svg" width="17.189" height="17" viewBox="0 0 17.189 17">
  <g id="homepage_1_" data-name="homepage (1)" transform="translate(0.596 0.5)">
    <g id="Icons_19_">
      <path id="Tracé_1237" data-name="Tracé 1237" d="M15.686,9.6,9,2.846a1.411,1.411,0,0,0-2,0L.313,9.6a1.089,1.089,0,0,0,0,1.529,1.063,1.063,0,0,0,1.514,0l.906-.915v7.066a1.146,1.146,0,0,0,1.14,1.152H6.31v-3.21a.45.45,0,0,1,.447-.452H9.243a.45.45,0,0,1,.447.452v3.21h2.436a1.146,1.146,0,0,0,1.14-1.152V10.211l.906.915a1.063,1.063,0,0,0,1.514,0A1.088,1.088,0,0,0,15.686,9.6Z" transform="translate(0 -2.428)" fill="none" stroke="#ababab" stroke-width="1"/>
    </g>
  </g>
</svg>
