<svg xmlns="http://www.w3.org/2000/svg" id="Groupe_2572" width="113.441" height="104.238" viewBox="0 0 113.441 104.238">
    <defs>
        <style>
            .cls-1{fill:#6b5aed}
        </style>
    </defs>
    <path id="Soustraction_1" d="M52.463 103.958a52.544 52.544 0 0 1-37.1-15.224 51.782 51.782 0 0 1-11.24-16.523 51.706 51.706 0 0 1 0-40.465 51.782 51.782 0 0 1 11.243-16.522A52.794 52.794 0 0 1 87.8 13.578a51.682 51.682 0 0 1 15.24 52.176 20.84 20.84 0 0 0-3.257-1.319 48.379 48.379 0 0 0-12.815-46.91 49.29 49.29 0 0 0-69.011 0 48.2 48.2 0 0 0-.47 68.373V74.5a22.3 22.3 0 0 1 6.666-15.919 22.721 22.721 0 0 1 16.068-6.6H64.7a22.775 22.775 0 0 1 20.688 13.2 20.921 20.921 0 0 0-3.088 1.631 19.293 19.293 0 0 0-17.6-11.368H40.221A19.2 19.2 0 0 0 20.985 74.5v14.611l.264.229c.979.8 1.973 1.562 2.953 2.252l.224.153.243.166c1.055.72 2.114 1.389 3.148 1.986l.463.259c1.214.686 2.305 1.249 3.334 1.72.113.054.228.1.338.152l.091.04c1.2.547 2.384 1.034 3.523 1.45.07.026.141.05.212.074l.168.058c1.251.445 2.5.834 3.7 1.159l.31.078c1.3.341 2.609.629 3.885.855.043.008.086.015.13.021l.1.015c1.37.236 2.732.415 4.048.53h.124c1.338.114 2.759.172 4.224.172 1.38 0 2.758-.06 4.214-.185h.124c1.324-.116 2.687-.295 4.053-.531l.083-.012c.048-.007.1-.014.144-.023 1.26-.223 2.568-.512 3.888-.857l.3-.075c1.2-.32 2.448-.712 3.723-1.166l.2-.07.153-.053c1.156-.421 2.35-.913 3.551-1.461.13-.055.265-.112.4-.173.687-.318 1.406-.675 2.136-1.063a21.02 21.02 0 0 0 1.991 2.889 52.729 52.729 0 0 1-15.358 5.378l-.551.1c-1.517.263-2.934.451-4.333.576-1.568.133-3.156.204-4.722.204zm0-54.993a17.487 17.487 0 1 1 12.366-5.122 17.373 17.373 0 0 1-12.366 5.122zm0-31.478a13.99 13.99 0 1 0 13.989 13.99 14.006 14.006 0 0 0-13.989-13.99z" class="cls-1"/>
    <g id="Groupe_1053" transform="translate(76.559 67.355)">
        <g id="Groupe_118">
            <g id="Groupe_119">
                <path id="ic_close_24px" d="M26.08 2.627L23.453 0 13.04 10.413 2.627 0 0 2.627 10.413 13.04 0 23.453l2.627 2.627L13.04 15.667l5.388 5.388 5.026 5.026 2.627-2.627L15.667 13.04z" class="cls-1" transform="rotate(-45 22.26 9.22)"/>
            </g>
        </g>
    </g>
</svg>
