<svg xmlns="http://www.w3.org/2000/svg" xmlns:xlink="http://www.w3.org/1999/xlink" width="39.528" height="39.53" viewBox="0 0 39.528 39.53">
  <defs>
    <linearGradient id="linear-gradient" x1="0.5" x2="0.5" y2="1" gradientUnits="objectBoundingBox">
      <stop offset="0" stop-color="#7bc6e8" stop-opacity="0"/>
      <stop offset="0.402" stop-color="#7bc6e8" stop-opacity="0.388"/>
      <stop offset="0.816" stop-color="#7bc6e8"/>
      <stop offset="1" stop-color="#7bc6e8"/>
    </linearGradient>
  </defs>
  <g id="Line" transform="translate(-1.003 -1)">
    <path id="Tracé_519" data-name="Tracé 519" d="M39.34,26.992a.638.638,0,0,0,0-1.211L30.08,22.7l-3.087-9.261a.638.638,0,0,0-1.211,0L22.7,22.7l-9.261,3.088a.638.638,0,0,0,0,1.211L22.7,30.082l3.087,9.261a.638.638,0,0,0,1.211,0l3.087-9.261Z" transform="translate(-4.347 -4.348)" fill="url(#linear-gradient)"/>
    <path id="Tracé_520" data-name="Tracé 520" d="M53.887,46.052l-4.829-1.81-1.811-4.83a.638.638,0,0,0-1.195,0l-1.811,4.83-4.829,1.81a.638.638,0,0,0,0,1.195l4.829,1.81,1.811,4.83a.638.638,0,0,0,1.195,0l1.811-4.83,4.829-1.81a.638.638,0,0,0,0-1.195Z" transform="translate(-13.771 -13.772)" fill="#6a5aeb" opacity="0.23"/>
    <path id="Tracé_521" data-name="Tracé 521" d="M32.692,8.2,29.5,5.012a.961.961,0,0,0-.259-.157L17.132,1.03a.626.626,0,0,0-.383,0L4.636,4.855a.95.95,0,0,0-.259.157L1.189,8.2a.638.638,0,0,0,.259,1.058l2.741.866V26.5a.638.638,0,0,0,.446.608l12.107,3.825h0a.629.629,0,0,0,.383,0h0L29.24,27.11a.638.638,0,0,0,.451-.608V10.124l2.742-.866A.638.638,0,0,0,32.692,8.2ZM16.3,8.419,6.943,5.463,16.3,2.508Zm1.275-5.911,9.359,2.955L17.578,8.419ZM5,6.188,15.746,9.58l-2.172,2.168L2.832,8.359Zm.46,4.339,8.1,2.557a.638.638,0,0,0,.643-.157l2.1-2.1V29.458L5.464,26.036ZM28.416,26.036,17.578,29.458V10.827l2.1,2.1a.638.638,0,0,0,.643.157l8.1-2.557ZM20.305,11.754,18.133,9.587,28.876,6.194l2.172,2.168Z" fill="#3e3f42" opacity="0.88"/>
  </g>
</svg>
