<svg xmlns="http://www.w3.org/2000/svg" width="15" height="16" viewBox="0 0 15 16">
  <g id="multimedia-option_1_" data-name="multimedia-option (1)" transform="translate(-16)">
    <g id="Groupe_1519" data-name="Groupe 1519" transform="translate(19.5)">
      <g id="Groupe_1518" data-name="Groupe 1518">
        <path id="Tracé_522" data-name="Tracé 522" d="M135.953,7.293A.5.5,0,0,0,135.5,7h-2V.5A.5.5,0,0,0,133,0h-2a.5.5,0,0,0-.5.5V7h-2a.5.5,0,0,0-.376.829l3.5,4a.5.5,0,0,0,.752,0l3.5-4A.5.5,0,0,0,135.953,7.293Z" transform="translate(-127.998)" fill="#a1a1a2"/>
      </g>
    </g>
    <g id="Groupe_1521" data-name="Groupe 1521" transform="translate(16 11)">
      <g id="Groupe_1520" data-name="Groupe 1520">
        <path id="Tracé_523" data-name="Tracé 523" d="M29,352v3H18v-3H16v4a1,1,0,0,0,1,1H30a1,1,0,0,0,1-1v-4Z" transform="translate(-16 -352)" fill="#a1a1a2"/>
      </g>
    </g>
  </g>
</svg>
