<svg xmlns="http://www.w3.org/2000/svg" width="17" height="17" viewBox="0 0 17 17">
  <g id="Notes_et_résultats" data-name="Notes et résultats" transform="translate(0.5 0.5)">
    <path id="Tracé_1382" data-name="Tracé 1382" d="M799.465,897.988h-4.909a1.091,1.091,0,0,1-1.091-1.091V886.079a1.091,1.091,0,0,1,1.091-1.091h7.818a1.091,1.091,0,0,1,1.091,1.091v1.91m0,0h-2.909a1.09,1.09,0,0,0-1.091,1.091V899.9a1.091,1.091,0,0,0,1.091,1.091h7.818a1.091,1.091,0,0,0,1.091-1.091V889.079a1.091,1.091,0,0,0-1.091-1.091Zm-1.273,2.818h4.364m-4.364,2.909h4.364m-4.364,2.91h4.364" transform="translate(-793.465 -884.988)" fill="none" stroke="#ababab" stroke-linecap="round" stroke-linejoin="round" stroke-width="1"/>
  </g>
</svg>
