<svg xmlns="http://www.w3.org/2000/svg" width="17.004" height="17.004" viewBox="0 0 17.004 17.004">
  <g id="Parametrage" transform="translate(0.502 0.502)">
    <path id="Tracé_1374" data-name="Tracé 1374" d="M1040.266,270.35h0a1.473,1.473,0,0,0,.478,2.164h0a.434.434,0,0,1,.13.534,6.609,6.609,0,0,0-.307,1.138.429.429,0,0,1-.377.4,1.475,1.475,0,0,0-1.5,1.635,8.254,8.254,0,0,0,.566,2.124,1.479,1.479,0,0,0,2.116.666.438.438,0,0,1,.53.151,5.878,5.878,0,0,0,.831.834.438.438,0,0,1,.153.529h0a1.474,1.474,0,0,0,.666,2.113,7.982,7.982,0,0,0,2.122.568,1.475,1.475,0,0,0,1.633-1.5.433.433,0,0,1,.395-.38,6.027,6.027,0,0,0,1.138-.3.438.438,0,0,1,.536.132,1.474,1.474,0,0,0,2.164.477,8.076,8.076,0,0,0,1.551-1.552,1.474,1.474,0,0,0-.478-2.164.441.441,0,0,1-.13-.534,6.12,6.12,0,0,0,.306-1.138.429.429,0,0,1,.377-.4,1.475,1.475,0,0,0,1.5-1.635,8,8,0,0,0-.566-2.123,1.479,1.479,0,0,0-2.116-.667.429.429,0,0,1-.525-.151,6.239,6.239,0,0,0-.837-.834.427.427,0,0,1-.147-.529,1.48,1.48,0,0,0-.672-2.113,7.977,7.977,0,0,0-2.122-.568,1.475,1.475,0,0,0-1.633,1.5.433.433,0,0,1-.395.38,6.2,6.2,0,0,0-1.138.3.438.438,0,0,1-.536-.131,1.473,1.473,0,0,0-2.164-.477A8.068,8.068,0,0,0,1040.266,270.35Z" transform="translate(-1038.68 -267.213)" fill="none" stroke="#ababab" stroke-linecap="round" stroke-linejoin="round" stroke-width="1"/>
    <path id="Tracé_1375" data-name="Tracé 1375" d="M1053.4,278.679a3.254,3.254,0,1,1-3.254-3.251A3.253,3.253,0,0,1,1053.4,278.679Z" transform="translate(-1042.125 -270.664)" fill="none" stroke="#ababab" stroke-linecap="round" stroke-linejoin="round" stroke-width="1"/>
  </g>
</svg>
