<svg xmlns="http://www.w3.org/2000/svg" width="17" height="16.998" viewBox="0 0 17 16.998">
  <g id="Planning" transform="translate(0.5 0.5)">
    <path id="Tracé_1307" data-name="Tracé 1307" d="M916.965,886.326a1.339,1.339,0,0,1,1.338-1.338h4.46a1.338,1.338,0,0,1,1.338,1.338v4.46a1.338,1.338,0,0,1-1.338,1.338H918.3a1.339,1.339,0,0,1-1.338-1.338Z" transform="translate(-916.965 -884.988)" fill="none" stroke="#ababab" stroke-linecap="round" stroke-linejoin="round" stroke-width="1"/>
    <path id="Tracé_1308" data-name="Tracé 1308" d="M916.965,901.325a1.338,1.338,0,0,1,1.338-1.338h4.46a1.338,1.338,0,0,1,1.338,1.338v4.46a1.338,1.338,0,0,1-1.338,1.338H918.3a1.338,1.338,0,0,1-1.338-1.338Z" transform="translate(-916.965 -891.125)" fill="none" stroke="#ababab" stroke-linecap="round" stroke-linejoin="round" stroke-width="1"/>
    <path id="Tracé_1309" data-name="Tracé 1309" d="M931.964,886.326a1.338,1.338,0,0,1,1.338-1.338h4.46a1.339,1.339,0,0,1,1.338,1.338v4.46a1.339,1.339,0,0,1-1.338,1.338H933.3a1.338,1.338,0,0,1-1.338-1.338Z" transform="translate(-923.1 -884.988)" fill="none" stroke="#ababab" stroke-linecap="round" stroke-linejoin="round" stroke-width="1"/>
    <path id="Tracé_1310" data-name="Tracé 1310" d="M931.964,901.325a1.338,1.338,0,0,1,1.338-1.338h4.46a1.338,1.338,0,0,1,1.338,1.338v4.46a1.338,1.338,0,0,1-1.338,1.338H933.3a1.338,1.338,0,0,1-1.338-1.338Z" transform="translate(-923.1 -891.125)" fill="none" stroke="#ababab" stroke-linecap="round" stroke-linejoin="round" stroke-width="1"/>
  </g>
</svg>
