<svg id="refresh_1_" data-name="refresh (1)" xmlns="http://www.w3.org/2000/svg" width="17.512" height="17.525" viewBox="0 0 17.512 17.525">
  <g id="Groupe_571" data-name="Groupe 571">
    <g id="Groupe_570" data-name="Groupe 570" transform="translate(0 0)">
      <path id="Tracé_130" data-name="Tracé 130" d="M6.437.365A8.756,8.756,0,0,0,1.628,3.929a2.381,2.381,0,0,0-.286.911V1.763H.175v4.67h4.67V5.265H2.206A7.693,7.693,0,0,1,8.931,1.121,7.688,7.688,0,0,1,16.2,6.6l1.121-.333A8.756,8.756,0,0,0,6.437.365Z" transform="translate(-0.175 0)" fill="#94979d"/>
    </g>
  </g>
  <g id="Groupe_573" data-name="Groupe 573" transform="translate(0.362 10.939)">
    <g id="Groupe_572" data-name="Groupe 572">
      <path id="Tracé_131" data-name="Tracé 131" d="M22.575,300.005v1.167h2.638a7.693,7.693,0,0,1-6.724,4.144,7.688,7.688,0,0,1-7.273-5.475l-1.121.333a8.756,8.756,0,0,0,15.8,2.166,1.605,1.605,0,0,0,.187-.741v3.076h1.167v-4.67Z" transform="translate(-10.095 -299.842)" fill="#94979d"/>
    </g>
  </g>
</svg>
