<svg id="Resources_humaines" data-name="Resources humaines" xmlns="http://www.w3.org/2000/svg" width="16" height="16.002" viewBox="0 0 16 16.002">
  <path id="Tracé_1385" data-name="Tracé 1385" d="M90.969,7.792a3.831,3.831,0,0,0,2.784-1.141A3.75,3.75,0,0,0,94.907,3.9a3.75,3.75,0,0,0-1.154-2.755,3.966,3.966,0,0,0-5.568,0A3.75,3.75,0,0,0,87.032,3.9a3.75,3.75,0,0,0,1.154,2.755A3.832,3.832,0,0,0,90.969,7.792Zm-2.107-5.98a3,3,0,0,1,4.213,0A2.8,2.8,0,0,1,93.949,3.9a2.8,2.8,0,0,1-.873,2.084,3,3,0,0,1-4.213,0A2.8,2.8,0,0,1,87.99,3.9a2.8,2.8,0,0,1,.873-2.084Zm0,0" transform="translate(-83.107 0)" fill="#ababab"/>
  <path id="Tracé_1386" data-name="Tracé 1386" d="M15.961,251.856a7.909,7.909,0,0,0-.155-1,6.8,6.8,0,0,0-.3-1.009,4.6,4.6,0,0,0-.5-.941,3.719,3.719,0,0,0-.755-.815,3.488,3.488,0,0,0-1.085-.564,4.448,4.448,0,0,0-1.385-.208,1.58,1.58,0,0,0-.751.264c-.225.122-.488.262-.782.417a4.99,4.99,0,0,1-1.012.369,4.708,4.708,0,0,1-2.475,0A4.974,4.974,0,0,1,5.75,248c-.291-.154-.554-.294-.783-.418a1.578,1.578,0,0,0-.75-.264,4.442,4.442,0,0,0-1.385.208,3.485,3.485,0,0,0-1.085.564,3.72,3.72,0,0,0-.755.815,4.607,4.607,0,0,0-.5.941,6.821,6.821,0,0,0-.3,1.009,7.856,7.856,0,0,0-.155,1c-.025.3-.038.619-.038.938a2.42,2.42,0,0,0,.946,1.995,3.84,3.84,0,0,0,2.437.736h9.234a3.84,3.84,0,0,0,2.437-.736A2.42,2.42,0,0,0,16,252.794c0-.32-.013-.636-.039-.938Zm-1.682,2.259a2.594,2.594,0,0,1-1.662.48H3.383a2.594,2.594,0,0,1-1.662-.479,1.573,1.573,0,0,1-.6-1.321c0-.3.012-.591.036-.873a7.086,7.086,0,0,1,.14-.9,6.015,6.015,0,0,1,.262-.889,3.751,3.751,0,0,1,.408-.765,2.754,2.754,0,0,1,.555-.6,2.318,2.318,0,0,1,.722-.372,3.063,3.063,0,0,1,.885-.141c.039.017.109.05.223.112.231.125.5.267.792.423a6.19,6.19,0,0,0,1.27.47,6.054,6.054,0,0,0,3.167,0,6.2,6.2,0,0,0,1.271-.47c.3-.159.56-.3.791-.422.114-.061.184-.094.223-.112a3.065,3.065,0,0,1,.885.141,2.322,2.322,0,0,1,.722.372,2.746,2.746,0,0,1,.555.6,3.739,3.739,0,0,1,.408.765,6,6,0,0,1,.262.889,7.146,7.146,0,0,1,.14.9h0c.024.281.036.575.036.873a1.573,1.573,0,0,1-.6,1.321Zm0,0" transform="translate(0 -239.524)" fill="#ababab"/>
</svg>
