<svg id="Sortie_pédagogique" data-name="Sortie pédagogique" xmlns="http://www.w3.org/2000/svg" width="29" height="29" viewBox="0 0 29 29">
  <rect id="Rectangle_572" data-name="Rectangle 572" width="29" height="29" rx="3" fill="#f5f6fa"/>
  <g id="bus_1_" data-name="bus (1)" transform="translate(8 8)" opacity="0.83">
    <g id="Groupe_867" data-name="Groupe 867" transform="translate(0 0)">
      <g id="Groupe_866" data-name="Groupe 866" transform="translate(0 0)">
        <path id="Tracé_305" data-name="Tracé 305" d="M342.493,325.333a1.16,1.16,0,1,0,1.16,1.16A1.16,1.16,0,0,0,342.493,325.333Zm0,1.739a.58.58,0,1,1,.58-.58A.58.58,0,0,1,342.493,327.072Z" transform="translate(-332.056 -316.926)" fill="#6a5aeb"/>
        <path id="Tracé_306" data-name="Tracé 306" d="M86.493,325.333a1.16,1.16,0,1,0,1.16,1.16A1.16,1.16,0,0,0,86.493,325.333Zm0,1.739a.58.58,0,1,1,.58-.58A.58.58,0,0,1,86.493,327.072Z" transform="translate(-83.014 -316.926)" fill="#6a5aeb"/>
        <path id="Tracé_307" data-name="Tracé 307" d="M93.439,69.333H86.493c-.715,0-1.16.325-1.16.847v3.175c0,.491.488.847,1.16.847H93.45c.4,0,1.16-.33,1.16-.847V70.188C94.609,69.716,94.085,69.333,93.439,69.333Zm.591,4.022c0,.243-.444.423-.58.423H86.493c-.357,0-.58-.162-.58-.423V70.18c0-.293.179-.423.58-.423h6.946c.326,0,.59.193.591.431v3.167Z" transform="translate(-83.014 -67.884)" fill="#6a5aeb"/>
        <path id="Tracé_308" data-name="Tracé 308" d="M13.045,18.9h-.29v-.87A2.032,2.032,0,0,0,10.726,16H3.189A2.032,2.032,0,0,0,1.16,18.029v.87H.87a.87.87,0,0,0-.87.87v1.739a.58.58,0,0,0,.58.58h.58v4.638a1.151,1.151,0,0,0,.308.781.283.283,0,0,0-.018.089v.87c0,.3.07.58.58.58H3.479c.58,0,.58-.4.58-.591v-.568h5.8v.568c0,.192,0,.591.58.591h1.449c.58,0,.58-.4.58-.591V27.6a.283.283,0,0,0-.018-.089,1.151,1.151,0,0,0,.308-.781V22.088h.58a.58.58,0,0,0,.58-.58V19.769A.87.87,0,0,0,13.045,18.9ZM1.16,21.508H.58V19.769a.29.29,0,0,1,.29-.29h.29Zm2.319,6.946v.011H2.029v-.621a1.146,1.146,0,0,0,.29.041h1.16Zm8.407.011H10.436v-.58H11.6a1.146,1.146,0,0,0,.29-.041v.621Zm.29-1.739a.58.58,0,0,1-.58.58H2.319a.58.58,0,0,1-.58-.58v-8.7A1.451,1.451,0,0,1,3.189,16.58h7.537a1.451,1.451,0,0,1,1.449,1.449v8.7Zm1.16-5.218h-.58V19.479h.29a.29.29,0,0,1,.29.29Z" transform="translate(0 -16)" fill="#6a5aeb"/>
      </g>
    </g>
  </g>
</svg>
