<svg id="Spectacle" xmlns="http://www.w3.org/2000/svg" width="29" height="29" viewBox="0 0 29 29">
  <rect id="Rectangle_574" data-name="Rectangle 574" width="29" height="29" rx="3" fill="#f5f6fa"/>
  <g id="entry_1_" data-name="entry (1)" transform="translate(8 8)" opacity="0.83">
    <g id="Groupe_869" data-name="Groupe 869" transform="translate(2.694 2.695)">
      <g id="Groupe_868" data-name="Groupe 868">
        <path id="Tracé_309" data-name="Tracé 309" d="M114.835,110.356l-2.7-2.7a.448.448,0,0,0-.633,0l-3.848,3.848a.448.448,0,0,0,0,.633l2.7,2.7a.448.448,0,0,0,.633,0l3.848-3.848A.448.448,0,0,0,114.835,110.356Zm-4.164,3.531-2.065-2.065,3.215-3.215,2.065,2.065Z" transform="translate(-107.525 -107.527)" fill="#6a5aeb"/>
      </g>
    </g>
    <g id="Groupe_871" data-name="Groupe 871" transform="translate(0 0.001)">
      <g id="Groupe_870" data-name="Groupe 870" transform="translate(0 0)">
        <path id="Tracé_310" data-name="Tracé 310" d="M12.7,4.629,11.331,3.261a.448.448,0,0,0-.643.011l-.006.007-.012.013A.8.8,0,1,1,9.539,2.16l.013-.012.006-.006A.448.448,0,0,0,9.569,1.5L8.2.132a.448.448,0,0,0-.633,0L.131,7.569a.448.448,0,0,0,0,.633L1.5,9.569a.448.448,0,0,0,.633,0,.8.8,0,1,1,1.13,1.13.448.448,0,0,0,0,.633L4.628,12.7a.448.448,0,0,0,.633,0L12.7,5.262A.448.448,0,0,0,12.7,4.629ZM4.944,11.75l-.776-.776A1.7,1.7,0,0,0,1.856,8.662L1.08,7.886l6.8-6.8.768.768A1.7,1.7,0,0,0,10.98,4.177l.768.768Z" transform="translate(0 -0.001)" fill="#6a5aeb"/>
      </g>
    </g>
  </g>
</svg>
