<svg id="technology" xmlns="http://www.w3.org/2000/svg" width="33.109" height="28.935" viewBox="0 0 33.109 28.935">
  <g id="Groupe_1371" data-name="Groupe 1371" transform="translate(0 0)">
    <g id="Groupe_1370" data-name="Groupe 1370" transform="translate(0 0)">
      <path id="Tracé_490" data-name="Tracé 490" d="M29.246,13.113H25.384V3.278a.443.443,0,0,0-.193-.355L21.328.113A.613.613,0,0,0,20.969,0H8.277a.515.515,0,0,0-.552.468V13.113H3.863A3.611,3.611,0,0,0,0,16.392v6.557a.515.515,0,0,0,.552.468h4.9a.475.475,0,1,0,0-.937H1.1V16.392A2.579,2.579,0,0,1,3.863,14.05H29.246a2.579,2.579,0,0,1,2.759,2.342V22.48h-3.87a.475.475,0,1,0,0,.937h4.422a.515.515,0,0,0,.552-.468V16.392A3.611,3.611,0,0,0,29.246,13.113Zm-4.966,0H8.829V.937H20.765L24.28,3.494Z" transform="translate(0 0)" fill="#3e3e40"/>
    </g>
  </g>
  <g id="Groupe_1373" data-name="Groupe 1373" transform="translate(5.518 19.002)">
    <g id="Groupe_1372" data-name="Groupe 1372">
      <path id="Tracé_491" data-name="Tracé 491" d="M102.61,345.247l-2.207-8.829a.552.552,0,0,0-.535-.418H82.761a.552.552,0,0,0-.535.418l-2.207,8.829a.552.552,0,0,0,.535.685h21.521a.552.552,0,0,0,.535-.685Zm-21.349-.418,1.931-7.725H99.436l1.931,7.725Z" transform="translate(-80.002 -336)" fill="#6b5aed"/>
    </g>
  </g>
  <g id="Groupe_1375" data-name="Groupe 1375" transform="translate(9.381 23.969)">
    <g id="Groupe_1374" data-name="Groupe 1374">
      <path id="Tracé_492" data-name="Tracé 492" d="M149.8,408H136.552a.552.552,0,1,0,0,1.1H149.8a.552.552,0,1,0,0-1.1Z" transform="translate(-136 -408)" fill="#6b5aed"/>
    </g>
  </g>
  <g id="Groupe_1377" data-name="Groupe 1377" transform="translate(9.381 25.624)">
    <g id="Groupe_1376" data-name="Groupe 1376">
      <path id="Tracé_493" data-name="Tracé 493" d="M149.8,432H136.552a.552.552,0,0,0,0,1.1H149.8a.552.552,0,0,0,0-1.1Z" transform="translate(-136 -432)" fill="#6b5aed"/>
    </g>
  </g>
  <g id="Groupe_1379" data-name="Groupe 1379" transform="translate(6.07 16.795)">
    <g id="Groupe_1378" data-name="Groupe 1378">
      <path id="Tracé_494" data-name="Tracé 494" d="M108.417,304H88.552a.552.552,0,0,0,0,1.1h19.866a.552.552,0,1,0,0-1.1Z" transform="translate(-88 -304)" fill="#6b5aed"/>
    </g>
  </g>
</svg>
