<svg xmlns="http://www.w3.org/2000/svg" width="23.13" height="23.13" viewBox="0 0 23.13 23.13">
  <g id="translate" transform="translate(-0.002)">
    <path id="Tracé_1047" data-name="Tracé 1047" d="M21.1,5.466H11.162L9.5.464A.678.678,0,0,0,8.856,0H2.035A2.035,2.035,0,0,0,0,2.033v13.6a2.035,2.035,0,0,0,2.033,2.033H9.5l1.649,4.989a.68.68,0,0,0,.647.477h9.3A2.035,2.035,0,0,0,23.132,21.1V7.5A2.035,2.035,0,0,0,21.1,5.466ZM2.035,16.308a.678.678,0,0,1-.678-.678V2.033a.678.678,0,0,1,.678-.678H8.368l4.971,14.953Zm11.191,1.355L11.9,20.593l-.968-2.929Zm8.55,3.433a.678.678,0,0,1-.678.678H12.85l2.044-4.509a.682.682,0,0,0,.026-.494L11.613,6.822H21.1a.678.678,0,0,1,.678.678Z" fill="#787878"/>
    <path id="Tracé_1048" data-name="Tracé 1048" d="M67.1,123.711H65.068a.678.678,0,1,0,0,1.355h1.239a2.033,2.033,0,1,1-.479-2.115.678.678,0,1,0,.958-.958,3.388,3.388,0,1,0,.992,2.4.678.678,0,0,0-.678-.678Z" transform="translate(-58.244 -115.534)" fill="#787878"/>
    <path id="Tracé_1049" data-name="Tracé 1049" d="M307.1,212.355h-2.033v-.678a.678.678,0,1,0-1.355,0v.678H301.68a.678.678,0,1,0,0,1.355h3.937a8.517,8.517,0,0,1-1.217,2.131c-.116-.157-.23-.317-.341-.479a.678.678,0,1,0-1.121.762c.19.28.389.552.588.81-.339.393-.672.749-.965,1.036a.678.678,0,1,0,.949.967c.023-.023.393-.387.887-.946.482.551.842.913.87.941a.678.678,0,0,0,.958-.958c-.007-.007-.422-.424-.951-1.042a8.816,8.816,0,0,0,1.747-3.223h.081a.678.678,0,0,0,0-1.355Z" transform="translate(-287.402 -201.468)" fill="#787878"/>
  </g>
</svg>
